<svg xmlns="http://www.w3.org/2000/svg" xmlns:svg="http://www.w3.org/2000/svg" xmlns:xlink="http://www.w3.org/1999/xlink" version="1.0" height="406pt" width="510.0000042915344pt" viewBox="320 552 518.0000042915344 412" ><defs><style type="text/css">
            @font-face {
                font-family: 'noto_regular';
                src: url('https://app.creately.com/diagram/assets/fonts/noto/noto-regular.woff') format('woff'),
                     url('https://app.creately.com/diagram/assets/fonts/noto/noto-regular.woff2') format('woff2');
                font-weight: normal;
                font-style: normal;
            }
        p {
            margin: 0;
        }
        </style></defs><defs><style>
            span{ display: inline-block; }
        </style></defs><g id="cbm6g6fc4x"><g transform="translate(325 685)"><ellipse cx="22.498345159113406" cy="10.625789581239223" rx="11.249172579556703" ry="10.625789581239223" fill="rgba(255,255,255,1)" stroke="#ea5b67" stroke-width="1.5" stroke-linecap="round" stroke-linejoin="round"/><path d="M 22.498345159113406,21.251579162478446 L 22.498345159113406,51.00378998994827 L 44.99669031822681,85.00631664991378 M 22.498345159113406,51.00378998994827 L 0,85.00631664991378 M 2.2498345159113406,31.877368743717668 L 42.74685580231547,31.877368743717668" fill="none" stroke="#ea5b67" stroke-width="1.5" stroke-linecap="round" stroke-linejoin="round"/><rect x="0" y="0" width="44.99669031822681" height="85.00631664991378" fill="rgba(255,255,255,0.01)" stroke="rgba(255,255,255,0.01)" stroke-width="1.5" stroke-linecap="round" stroke-linejoin="round"/></g><g transform="translate(332.4983451591134, 775.0063166499137) rotate(0, 15, 0)" width="30" height="19"><text text-decoration="none" x="1.5" fill="rgb(75, 75, 75)" font-size="10pt" font-family="Lato"  y="17">User</text><text text-decoration="none" x="28.5" fill="#4b4b4b" font-size="10pt" font-family="noto_regular"  y="17"></text></g></g><g id="c73omqsw6r"><g transform="translate(465 575)"><ellipse cx="57.50000470876694" cy="30.5" rx="57.50000470876694" ry="30.5" fill="rgba(26,188,156,1)" stroke="#1abc9c" stroke-width="1.5" stroke-linecap="round" stroke-linejoin="round"/></g><g transform="translate(505.00000470876694, 596) rotate(0, 17.5, 9.5)" width="35" height="19"><text text-decoration="none" x="0.5" fill="rgb(255, 255, 255)" font-size="10pt" font-family="Lato"  y="17">LogIn</text><text text-decoration="none" x="34.5" fill="#4b4b4b" font-size="10pt" font-family="noto_regular"  y="17"></text></g></g><g id="1l2pcvwmfh"><g><path d="M 422,684 L 422,684" fill="none" stroke="#cccccc" stroke-width="1.5" stroke-linecap="round" stroke-linejoin="round"/></g></g><g id="1f8ua9jayy"><g><path d="M 454,655 L 454,655" fill="none" stroke="#cccccc" stroke-width="1.5" stroke-linecap="round" stroke-linejoin="round"/></g></g><g id="d7wiadfdsx"><g><path d="M 354,731 L 485,630" fill="none" stroke="#cccccc" stroke-width="1.5" stroke-linecap="round" stroke-linejoin="round"/></g></g><g id="1lrbgbqxrt"><g transform="translate(505 650)"><ellipse cx="57.50000470876694" cy="30.5" rx="57.50000470876694" ry="30.5" fill="rgba(26,188,156,1)" stroke="#1abc9c" stroke-width="1.5" stroke-linecap="round" stroke-linejoin="round"/></g><g transform="translate(536.5000047087669, 671) rotate(0, 26, 9.5)" width="52" height="19"><text text-decoration="none" x="2" fill="rgb(255, 255, 255)" font-size="10pt" font-family="Lato"  y="17">Add&#160;</text><text text-decoration="none" x="29" fill="rgb(255, 255, 255)" font-size="10pt" font-family="Lato"  y="17">List</text><text text-decoration="none" x="50" fill="#4b4b4b" font-size="10pt" font-family="noto_regular"  y="17"></text></g></g><g id="2nbohu8jys"><g><path d="M 355,730 L 510,695" fill="none" stroke="#cccccc" stroke-width="1.5" stroke-linecap="round" stroke-linejoin="round"/></g></g><g id="f46ik5ua6o"><mask id="baad3" x="602" y="597" width="86" height="80" maskUnits="userSpaceOnUse"><rect x="602" y="597" width="86" height="80" fill="white" /><rect x="607.701175612585" y="617.5689419486735" width="90" height="25" fill="black" /></mask><g mask="url(#baad3)"><path d="M 615,664 L 675,610" fill="none" stroke="#cccccc" stroke-width="1.5" stroke-linecap="round" stroke-linejoin="round"/><path d="M 675,610 L 664.6900254345,611.5431432818827 L 672.3831198481581,620.0910259637251 Z" fill="rgb(204,204,204)" stroke="#cccccc" stroke-width="1.5" stroke-linecap="round" stroke-linejoin="round"/></g><g transform="translate(610.701175612585, 620.5689419486735)" width="84" height="19"><text text-decoration="none" x="8" fill="rgb(0, 0, 0)" font-size="9pt" font-family="Lato"  y="17">&#x3C;&#x3C;include&#x3E;&#x3E;</text><text text-decoration="none" x="76" fill="#4b4b4b" font-size="10pt" font-family="noto_regular"  y="17"></text></g></g><g id="1cyxbcok9b"><g transform="translate(660 555)"><ellipse cx="55.00000214576721" cy="30.5" rx="55.00000214576721" ry="30.5" fill="rgba(26,188,156,1)" stroke="#1abc9c" stroke-width="1.5" stroke-linecap="round" stroke-linejoin="round"/></g><g transform="translate(667.5000021457672, 576) rotate(0, 47.5, 9.5)" width="95" height="19"><text text-decoration="none" x="4" fill="rgb(255, 255, 255)" font-size="10pt" font-family="Lato"  y="17">Add&#160;</text><text text-decoration="none" x="31" fill="rgb(255, 255, 255)" font-size="10pt" font-family="Lato"  y="17">List&#160;</text><text text-decoration="none" x="55" fill="rgb(255, 255, 255)" font-size="10pt" font-family="Lato"  y="17">Name</text><text text-decoration="none" x="91" fill="#4b4b4b" font-size="10pt" font-family="noto_regular"  y="17"></text></g></g><g id="kiugl46jt6"><g transform="translate(485 735)"><ellipse cx="57.50000470876694" cy="30.5" rx="57.50000470876694" ry="30.5" fill="rgba(26,188,156,1)" stroke="#1abc9c" stroke-width="1.5" stroke-linecap="round" stroke-linejoin="round"/></g><g transform="translate(513.5000047087669, 756) rotate(0, 29, 9.5)" width="58" height="19"><text text-decoration="none" x="2" fill="rgb(255, 255, 255)" font-size="10pt" font-family="Lato"  y="17">Add&#160;</text><text text-decoration="none" x="29" fill="rgb(255, 255, 255)" font-size="10pt" font-family="Lato"  y="17">Task</text><text text-decoration="none" x="56" fill="#4b4b4b" font-size="10pt" font-family="noto_regular"  y="17"></text></g></g><g id="170a6huhkp"><g><path d="M 354,731 L 485,760" fill="none" stroke="#cccccc" stroke-width="1.5" stroke-linecap="round" stroke-linejoin="round"/></g></g><g id="9cvhwnmqhf"><g transform="translate(545 900)"><ellipse cx="60.00000184774399" cy="30.5" rx="60.00000184774399" ry="30.5" fill="rgba(26,188,156,1)" stroke="#1abc9c" stroke-width="1.5" stroke-linecap="round" stroke-linejoin="round"/></g><g transform="translate(569.000001847744, 913) rotate(0, 36, 17.5)" width="72" height="35"><text text-decoration="none" x="4.5" fill="rgb(255, 255, 255)" font-size="10pt" font-family="Lato"  y="14">Set&#160;</text><text text-decoration="none" x="26.5" fill="rgb(255, 255, 255)" font-size="10pt" font-family="Lato"  y="14">task&#160;</text><text text-decoration="none" x="54.5" fill="rgb(255, 255, 255)" font-size="10pt" font-family="Lato"  y="14">as&#160;</text><text text-decoration="none" x="3" fill="rgb(255, 255, 255)" font-size="10pt" font-family="Lato"  y="36">Completed</text><text text-decoration="none" x="69" fill="#4b4b4b" font-size="10pt" font-family="noto_regular"  y="36"></text></g></g><g id="d9gpsr7536"><g transform="translate(410 880)"><ellipse cx="57.50000470876694" cy="30.5" rx="57.50000470876694" ry="30.5" fill="rgba(26,188,156,1)" stroke="#1abc9c" stroke-width="1.5" stroke-linecap="round" stroke-linejoin="round"/></g><g transform="translate(424.00000470876694, 893) rotate(0, 43.5, 17.5)" width="87" height="35"><text text-decoration="none" x="12" fill="rgb(255, 255, 255)" font-size="10pt" font-family="Lato"  y="14">Set&#160;</text><text text-decoration="none" x="34" fill="rgb(255, 255, 255)" font-size="10pt" font-family="Lato"  y="14">task&#160;</text><text text-decoration="none" x="62" fill="rgb(255, 255, 255)" font-size="10pt" font-family="Lato"  y="14">as&#160;</text><text text-decoration="none" x="3" fill="rgb(255, 255, 255)" font-size="10pt" font-family="Lato"  y="36">Uncompleted</text><text text-decoration="none" x="84" fill="#4b4b4b" font-size="10pt" font-family="noto_regular"  y="36"></text></g></g><g id="8ccp4vukje"><g><path d="M 354,733 L 555,910" fill="none" stroke="#cccccc" stroke-width="1.5" stroke-linecap="round" stroke-linejoin="round"/></g></g><g id="1h6cbj1if4"><g><path d="M 354,735 L 450,880" fill="none" stroke="#cccccc" stroke-width="1.5" stroke-linecap="round" stroke-linejoin="round"/></g></g><g id="qf77cmxzpn"><g transform="translate(520 815)"><ellipse cx="57.50000470876694" cy="30.5" rx="57.50000470876694" ry="30.5" fill="rgba(26,188,156,1)" stroke="#1abc9c" stroke-width="1.5" stroke-linecap="round" stroke-linejoin="round"/></g><g transform="translate(542.5000047087669, 836) rotate(0, 35, 9.5)" width="70" height="19"><text text-decoration="none" x="3" fill="rgb(255, 255, 255)" font-size="10pt" font-family="Lato"  y="17">Share&#160;</text><text text-decoration="none" x="40" fill="rgb(255, 255, 255)" font-size="10pt" font-family="Lato"  y="17">Task</text><text text-decoration="none" x="67" fill="#4b4b4b" font-size="10pt" font-family="noto_regular"  y="17"></text></g></g><g id="21fcy3c3ky"><g><path d="M 355,730 L 540,820" fill="none" stroke="#cccccc" stroke-width="3" stroke-linecap="round" stroke-linejoin="round"/></g></g><g id="1scbnh9ufg"><mask id="dc1ed" x="587" y="692" width="121" height="86" maskUnits="userSpaceOnUse"><rect x="587" y="692" width="121" height="86" fill="white" /><rect x="624.6353329090708" y="708.5197897416394" width="90" height="25" fill="black" /></mask><g mask="url(#dc1ed)"><path d="M 600,765 L 695,705" fill="none" stroke="#cccccc" stroke-width="1.5" stroke-linecap="round" stroke-linejoin="round"/><path d="M 695,705 L 684.5774628818585,704.7818561239892 L 690.7183822828202,714.5049785088453 Z" fill="rgb(204,204,204)" stroke="#cccccc" stroke-width="1.5" stroke-linecap="round" stroke-linejoin="round"/></g><g transform="translate(627.6353329090708, 711.5197897416394)" width="84" height="19"><text text-decoration="none" x="8" fill="rgb(0, 0, 0)" font-size="9pt" font-family="Lato"  y="17">&#x3C;&#x3C;include&#x3E;&#x3E;</text><text text-decoration="none" x="76" fill="#4b4b4b" font-size="10pt" font-family="noto_regular"  y="17"></text></g></g><g id="rjxx97troh"><mask id="2d0d7" x="587" y="752" width="121" height="81" maskUnits="userSpaceOnUse"><rect x="587" y="752" width="121" height="81" fill="white" /><rect x="623.2928887691498" y="792.037988234771" width="90" height="25" fill="black" /></mask><g mask="url(#2d0d7)"><path d="M 600,765 L 695,820" fill="none" stroke="#cccccc" stroke-width="1.5" stroke-linecap="round" stroke-linejoin="round"/><path d="M 695,820 L 690.3555125949093,810.6669617233383 L 684.5935954836798,820.6193640063713 Z" fill="rgb(204,204,204)" stroke="#cccccc" stroke-width="1.5" stroke-linecap="round" stroke-linejoin="round"/></g><g transform="translate(626.2928887691498, 795.037988234771)" width="84" height="19"><text text-decoration="none" x="8" fill="rgb(0, 0, 0)" font-size="9pt" font-family="Lato"  y="17">&#x3C;&#x3C;include&#x3E;&#x3E;</text><text text-decoration="none" x="76" fill="#4b4b4b" font-size="10pt" font-family="noto_regular"  y="17"></text></g></g><g id="4yq0h35njp"><g transform="translate(690 660)"><ellipse cx="55.00000214576721" cy="30.5" rx="55.00000214576721" ry="30.5" fill="rgba(26,188,156,1)" stroke="#1abc9c" stroke-width="1.5" stroke-linecap="round" stroke-linejoin="round"/></g><g transform="translate(699.5000021457672, 681) rotate(0, 45.5, 9.5)" width="91" height="19"><text text-decoration="none" x="4.5" fill="rgb(255, 255, 255)" font-size="10pt" font-family="Lato"  y="17">Add&#160;</text><text text-decoration="none" x="31.5" fill="rgb(255, 255, 255)" font-size="10pt" font-family="Lato"  y="17">Task&#160;</text><text text-decoration="none" x="61.5" fill="rgb(255, 255, 255)" font-size="10pt" font-family="Lato"  y="17">Title</text><text text-decoration="none" x="86.5" fill="#4b4b4b" font-size="10pt" font-family="noto_regular"  y="17"></text></g></g><g id="28l2w376l8"><g transform="translate(695 790)"><ellipse cx="55.00000214576721" cy="30.5" rx="55.00000214576721" ry="30.5" fill="rgba(26,188,156,1)" stroke="#1abc9c" stroke-width="1.5" stroke-linecap="round" stroke-linejoin="round"/></g><g transform="translate(704.5000021457672, 811) rotate(0, 45.5, 9.5)" width="91" height="19"><text text-decoration="none" x="3" fill="rgb(255, 255, 255)" font-size="10pt" font-family="Lato"  y="17">Add&#160;</text><text text-decoration="none" x="30" fill="rgb(255, 255, 255)" font-size="10pt" font-family="Lato"  y="17">Reminder</text><text text-decoration="none" x="88" fill="#4b4b4b" font-size="10pt" font-family="noto_regular"  y="17"></text></g></g><g id="2miy72wz5a"><mask id="6861b" x="588.3499999999999" y="742" width="149.6500000000001" height="35.80000000000007" maskUnits="userSpaceOnUse"><rect x="588.3499999999999" y="742" width="149.6500000000001" height="35.80000000000007" fill="white" /><rect x="586.2562189657499" y="749.9297537738428" width="90" height="25" fill="black" /></mask><g mask="url(#6861b)"><path d="M 601.3499999999999,764.8000000000001 L 725,755" fill="none" stroke="#cccccc" stroke-width="1.5" stroke-linecap="round" stroke-linejoin="round"/><path d="M 725,755 L 715.8772335412184,749.955002589871 L 716.785827927912,761.4190531934086 Z" fill="rgb(204,204,204)" stroke="#cccccc" stroke-width="1.5" stroke-linecap="round" stroke-linejoin="round"/></g><g transform="translate(589.2562189657499, 752.9297537738428)" width="84" height="19"><text text-decoration="none" x="8" fill="rgb(0, 0, 0)" font-size="9pt" font-family="Lato"  y="17">&#x3C;&#x3C;include&#x3E;&#x3E;</text><text text-decoration="none" x="76" fill="#4b4b4b" font-size="10pt" font-family="noto_regular"  y="17"></text></g></g><g id="1hisn2ztoa"><g transform="translate(725 725)"><ellipse cx="55.00000214576721" cy="30.5" rx="55.00000214576721" ry="30.5" fill="rgba(26,188,156,1)" stroke="#1abc9c" stroke-width="1.5" stroke-linecap="round" stroke-linejoin="round"/></g><g transform="translate(736.0000021457672, 746) rotate(0, 44, 9.5)" width="88" height="19"><text text-decoration="none" x="3.5" fill="rgb(255, 255, 255)" font-size="10pt" font-family="Lato"  y="17">Add&#160;</text><text text-decoration="none" x="30.5" fill="rgb(255, 255, 255)" font-size="10pt" font-family="Lato"  y="17">Category</text><text text-decoration="none" x="84.5" fill="#4b4b4b" font-size="10pt" font-family="noto_regular"  y="17"></text></g></g></svg>